<svg width="123" height="249" viewBox="0 0 123 249" fill="none" xmlns="http://www.w3.org/2000/svg">
<path d="M61.5534 0L81.319 63.5622H41.7877L61.5534 0Z" fill="#965FD7"/>
<path d="M61.4254 136.394C61.4298 141.914 63.7066 107.521 46.8555 136.394C30.0045 165.266 -13.447 206.842 5.84082 230.299C25.1287 253.757 61.4254 246.869 61.4254 246.869V136.394Z" fill="#965FD7" stroke="#383E47" stroke-width="1.68438"/>
<path d="M61.5746 136.394C61.5702 141.914 59.2934 107.521 76.1445 136.394C92.9955 165.266 136.447 206.842 117.159 230.299C97.8713 253.757 61.5746 246.869 61.5746 246.869V136.394Z" fill="#965FD7" stroke="#383E47" stroke-width="1.68438"/>
<path d="M107.116 98.8241C107.116 122.209 86.7734 141.265 61.5537 141.265C36.334 141.265 15.9911 122.209 15.9911 98.8241C15.9911 75.4391 36.334 56.3835 61.5537 56.3835C86.7734 56.3835 107.116 75.4391 107.116 98.8241Z" fill="#965FD7" stroke="#393E46" stroke-width="1.68438"/>
</svg>
